<svg width="48" height="48" viewBox="0 0 48 48" fill="none" xmlns="http://www.w3.org/2000/svg">
<rect width="48" height="48" fill="#323238"/>
<g clip-path="url(#clip0_61385:212)">
<path fill-rule="evenodd" clip-rule="evenodd" d="M14 12C12.8954 12 12 12.8954 12 14V34C12 35.1046 12.8954 36 14 36H34C35.1046 36 36 35.1046 36 34V14C36 12.8954 35.1046 12 34 12H14ZM25.048 22.5427C25.0282 22.5624 25.0026 22.5881 24.9671 22.6275C24.9671 22.5427 24.9668 22.4603 24.9666 22.38V22.3799C24.9655 21.9897 24.9646 21.6472 24.9907 21.2938C24.9986 21.0965 24.9434 21.0412 24.7461 21.0412C23.6491 21.0491 22.5442 21.057 21.4472 21.0412C21.2263 21.0412 21.1789 21.1044 21.1789 21.3253C21.1947 23.3299 21.1947 25.3424 21.1947 27.3549C21.1947 28.9885 21.1868 30.6222 21.171 32.2558C21.171 32.4768 21.242 32.5162 21.4393 32.5162C22.5363 32.5084 23.6412 32.5084 24.7382 32.5162C24.9197 32.5162 25.0065 32.4768 24.9907 32.2716C24.9738 32.1025 24.9771 31.9334 24.9803 31.7643C24.9816 31.6966 24.9829 31.629 24.9829 31.5613C24.9829 30.956 24.9837 30.3515 24.9846 29.7473C24.9864 28.5398 24.9881 27.3335 24.9829 26.1237C24.975 25.3661 25.2117 24.7268 25.8036 24.2375C26.9085 23.3378 28.4474 23.8113 28.842 25.1688C28.9604 25.5949 28.992 26.029 28.992 26.4631C28.9999 28.3887 28.9999 30.3065 28.992 32.2321C28.9841 32.4689 29.0472 32.532 29.284 32.532C30.3573 32.5162 31.4385 32.5162 32.5197 32.532C32.7565 32.532 32.8117 32.461 32.8117 32.2321C32.7999 30.6874 32.8014 29.1426 32.8029 27.5978C32.8033 27.0828 32.8038 26.5677 32.8038 26.0527C32.8038 25.5555 32.7644 25.0583 32.6933 24.569C32.3777 22.5013 31.1386 21.1517 29.2051 20.8518C27.532 20.5993 26.0956 21.0255 25.0933 22.4934C25.0815 22.5092 25.0677 22.523 25.048 22.5427ZM19.056 26.7945V26.7948C19.056 28.6099 19.056 30.4171 19.0639 32.2321C19.0639 32.461 19.0165 32.5399 18.7718 32.532C17.6827 32.5162 16.5936 32.5241 15.5045 32.532C15.2994 32.532 15.2362 32.4847 15.2362 32.2716C15.2441 28.6176 15.2441 24.9636 15.2362 21.3095C15.2362 21.1201 15.2836 21.057 15.4809 21.057C16.5936 21.0649 17.6985 21.0649 18.8113 21.057C19.0323 21.057 19.0639 21.1359 19.0639 21.3332C19.056 23.1483 19.056 24.9712 19.056 26.7942V26.7945ZM19.2454 18.0501C19.5848 16.6927 18.6377 15.5325 17.1777 15.5325C16.2149 15.5325 15.4493 15.9903 15.1494 16.7558C14.668 17.987 15.3941 19.2497 16.6963 19.4628C17.9195 19.668 18.985 19.0761 19.2454 18.0501Z" fill="white"/>
</g>
<defs>
<clipPath id="clip0_0:1">
<rect width="375" height="812" fill="white" transform="translate(-248 -596)"/>
</clipPath>
</defs>
</svg>
